<?xml version="1.0" encoding="utf-8"?>
<!-- Generator: Adobe Illustrator 18.1.1, SVG Export Plug-In . SVG Version: 6.00 Build 0)  -->
<svg xmlns="http://www.w3.org/2000/svg" xmlns:xlink="http://www.w3.org/1999/xlink" xml:space="preserve" id="Layer_1" x="0" y="0" viewBox="0 0 470.3 660.8"><path fill="#ef5446" d="M241.3 249.1h-40.7l-35.7-55v55h-34.3V124.6h34.3v52.5l32.8-52.5h39.8l-39.8 60.3z"/><defs><path id="SVGID_1_" d="M0 0h470.3v660.8H0z"/></defs><clipPath id="SVGID_2_"><use xlink:href="#SVGID_1_" overflow="visible"/></clipPath><path fill="#ef5446" d="M313.4 249.1 293.3 211h-12.4v38.1h-34.3V124.6h53.9q20.25 0 33.3 12.3c8.7 8.2 13 18.8 13 31.8 0 7.5-1.7 14.3-5.2 20.4s-8.3 11-14.6 14.8l24.8 45.3h-38.4zM280.9 155v27.1h15.6c4.7 0 8.4-1.3 11.1-3.8s4-5.8 4-9.8-1.3-7.3-4-9.8-6.4-3.8-11.1-3.8h-15.6z" clip-path="url(#SVGID_2_)"/><path fill="#663287" d="M164.7 362.9h47v29.8h-81.1V268.1h79.7v29.7h-45.6v18.4h40.9v28.1h-40.9z" clip-path="url(#SVGID_2_)"/><path fill="#663287" d="M320.4 268.1V299h-33.9v93.7h-34.4V299h-33.9v-30.9z" clip-path="url(#SVGID_2_)"/><path fill="#fcb03e" d="m213.1 536.2-6.9-20.2h-44.1l-6.9 20.2h-36.7l48.9-124.6H201l49.9 124.6zm-15.2-47-13.8-38.6-13.6 38.6z" clip-path="url(#SVGID_2_)"/><path fill="#663287" d="M300.7 489.5c-2.9-1.2-6.1-1.9-9.4-1.9-6.6 0-12.5 2.6-16.9 6.8l11.5 17.4z" clip-path="url(#SVGID_2_)"/><path fill="#663287" d="M291.3 536.2c3.5 0 6.8-.8 9.8-2.1L286 511.8l-11.8 17.3c4.4 4.4 10.4 7.1 17.1 7.1" clip-path="url(#SVGID_2_)"/><path fill="#fcb03e" d="m298.7 511.8 10.9 16.1c3.8-4.3 6.1-9.9 6.1-16 0-6.3-2.4-12-6.3-16.3z" clip-path="url(#SVGID_2_)"/><path fill="#ef5446" d="m274.2 529.2 11.8-17.3-11.5-17.4c-4.6 4.4-7.5 10.6-7.5 17.5 0 6.7 2.7 12.8 7.2 17.2" clip-path="url(#SVGID_2_)"/></svg>
